<?xml version="1.0" standalone="no"?>
<!DOCTYPE svg PUBLIC "-//W3C//DTD SVG 1.1//EN" "http://www.w3.org/Graphics/SVG/1.1/DTD/svg11.dtd">
<svg xmlns="http://www.w3.org/2000/svg" xmlns:xlink="http://www.w3.org/1999/xlink" width="600px" height="800px" version="1.1" viewBox="0 0 1350 240" preserveAspectRatio="xMinYMin">
  <defs>
    <marker id="arrow_end" viewBox="0 0 10 10" refX="1" refY="5" markerUnits="strokeWidth" orient="auto" markerWidth="10" markerHeight="10">
      <polyline points="0,0 10,5 0,10 1,5" fill="green"/>
    </marker>
  </defs>
  <rect id="bounding" x="0" y="0" width="1350" height="240" fill="white" stroke="green" stroke-width="1"/>
  <text x="12" y="12" fill="black">std::vector::push_back</text>
  <!-- s0 -->
  <g>
    <ellipse cx="100" cy="80" rx="50" ry="15" style="fill:lightgreen"/>
    <text x="70" y="80" fill="black">resource</text>
    <rect x="25" y="25" width="160" height="80" style="fill-opacity:0;stroke:darkgreen;"/>
    <text x="40" y="45" fill="black">0</text>
  </g>
  <!-- s1 -->
  <g>
    <ellipse cx="260" cy="80" rx="50" ry="15" style="fill:lightgreen"/>
    <text x="230" y="80" fill="black">resource</text>
    <rect x="185" y="25" width="160" height="80" style="fill-opacity:0;stroke:darkgreen;"/>
    <text x="200" y="45" fill="black">1</text>
  </g>
  <!-- s2 -->
  <g>
    <ellipse cx="420" cy="80" rx="50" ry="15" style="fill:lightgreen"/>
    <text x="390" y="80" fill="black">resource</text>
    <rect x="345" y="25" width="160" height="80" style="fill-opacity:0;stroke:darkgreen;"/>
    <text x="360" y="45" fill="black">2</text>
  </g>
  <!-- s3 -->
  <g>
    <ellipse cx="580" cy="80" rx="50" ry="15" style="fill:lightgreen"/>
    <text x="550" y="80" fill="black">resource</text>
    <rect x="505" y="25" width="160" height="80" style="fill-opacity:0;stroke:darkgreen;"/>
    <text x="520" y="45" fill="black">3</text>
  </g>
  <!-- targets-->
  <g opacity="0">
    <!-- t0 -->
    <g>
      <rect x="25" y="140" width="160" height="80" style="fill-opacity:0;stroke:darkgreen;"/>
      <text x="40" y="160" fill="black">0</text>
    </g>
    <!-- t1 -->
    <g>
      <rect x="185" y="140" width="160" height="80" style="fill-opacity:0;stroke:darkgreen;"/>
      <text x="200" y="160" fill="black">1</text>
    </g>
    <!-- t2 -->
    <g>
      <rect x="345" y="140" width="160" height="80" style="fill-opacity:0;stroke:darkgreen;"/>
      <text x="360" y="160" fill="black">2</text>
    </g>
    <!-- t3 -->
    <g>
      <rect x="505" y="140" width="160" height="80" style="fill-opacity:0;stroke:darkgreen;"/>
      <text x="520" y="160" fill="black">3</text>
    </g>
    <!-- t4 -->
    <g>
      <rect x="665" y="140" width="160" height="80" style="fill-opacity:0;stroke:darkgreen;"/>
      <text x="680" y="160" fill="black">4</text>
    </g>
    <!-- t5 -->
    <g>
      <rect x="825" y="140" width="160" height="80" style="fill-opacity:0;stroke:darkgreen;"/>
      <text x="840" y="160" fill="black">5</text>
    </g>
    <!-- t6 -->
    <g>
      <rect x="985" y="140" width="160" height="80" style="fill-opacity:0;stroke:darkgreen;"/>
      <text x="1000" y="160" fill="black">6</text>
    </g>
    <!-- t7 -->
    <g>
      <rect x="1145" y="140" width="160" height="80" style="fill-opacity:0;stroke:darkgreen;"/>
      <text x="1160" y="160" fill="black">7</text>
    </g>
    <animate id="target_appears" attributeName="opacity" from="0" to="1" begin="bounding.click" dur="1s" fill="freeze"/>
  </g>
  <!-- Down arrow -->
  <g opacity = "0">
    <line x1="105" y1="105" x2="105" y2="134" stroke="black" stroke-width="1" marker-end="url(#arrow_end)"/>
    <line x1="265" y1="105" x2="265" y2="134" stroke="black" stroke-width="1" marker-end="url(#arrow_end)"/>
    <line x1="425" y1="105" x2="425" y2="134" stroke="black" stroke-width="1" marker-end="url(#arrow_end)"/>
    <line x1="585" y1="105" x2="585" y2="134" stroke="black" stroke-width="1" marker-end="url(#arrow_end)"/>
    <animate attributeName="opacity" from="0" to="1" begin="target_appears.end" dur="1s" fill="freeze"/>
  </g>
  <!-- s-to-t path -->
  <path id="s_to_t_path" d="M 0 0 L 0 115" fill="none"/>
  <!-- Down resources -->
  <g opacity = "0">
    <ellipse cx="100" cy="80" rx="50" ry="15" style="fill:lightgreen"/>
    <text x="70" y="80" fill="black">resource</text>
    <ellipse cx="260" cy="80" rx="50" ry="15" style="fill:lightgreen"/>
    <text x="230" y="80" fill="black">resource</text>
    <ellipse cx="420" cy="80" rx="50" ry="15" style="fill:lightgreen"/>
    <text x="390" y="80" fill="black">resource</text>
    <ellipse cx="580" cy="80" rx="50" ry="15" style="fill:lightgreen"/>
    <text x="550" y="80" fill="black">resource</text>
    <animate attributeName="opacity" from="0" to="1" begin="target_appears.end" dur="1s" fill="freeze"/>
    <animateMotion id="a_down" begin="target_appears.end" dur="1s" fill="freeze">
      <mpath xlink:href="#s_to_t_path"/>
    </animateMotion>
    </g>
</svg>
